<svg width="1920" height="1080" viewBox="0 0 1920 1080" fill="none" xmlns="http://www.w3.org/2000/svg">
  <path opacity="0.2" d="M1190.36 502.065C1172.76 484.184 1149.16 474.137 1124.6 474.137C1100.04 474.137 1076.62 484.184 1059.52 502.065L994.916 569.403C978.068 587.62 957.813 602.156 935.345 612.152C912.877 622.148 888.638 627.413 864.084 627.636C839.53 627.852 815.105 623.026 792.209 613.437C769.376 603.841 748.519 589.681 730.915 571.768C713.375 553.856 699.345 532.561 689.733 509.116C680.183 485.672 675.184 460.549 675.066 435.222C675.012 409.896 679.784 384.862 689.21 361.589C698.635 338.316 712.465 317.263 729.955 299.668L1244.38 -237.511C1367.38 -266.428 1496.59 -254.527 1613.59 -203.501C1730.64 -152.475 1829.49 -64.9212 1896.2 46.7109C1962.92 158.341 1994.07 288.369 1985.18 418.308C1976.29 548.241 1927.85 671.466 1846.75 770.464L1654.17 974.1L1190.36 501.969L1190.36 502.065ZM169.212 -71.3593C263.764 -170.042 388.198 -232.553 522.522 -248.788C656.783 -265.023 793.077 -234.032 909.198 -160.826L597.348 164.801C529.8 235.166 491.996 330.317 491.938 429.913C491.879 529.515 529.66 625.671 597.164 697.835C664.667 770 756.493 812.444 853.114 816.107C949.735 819.769 1043.47 784.358 1114.23 717.433L1127.4 704.366L1524.97 1108.97L1137.23 1513.67C1102.96 1549.43 1056.12 1569.52 1007.07 1569.52C957.958 1569.52 910.696 1549.43 875.553 1513.67L179.741 805.373C65.5707 689.111 0.263909 531.423 -1.73447 367.007C-3.73285 202.591 57.7407 44.9064 169.085 -71.3593H169.212Z" fill="#BCEAFF"/>
</svg>
